# Blender 4.1.1
# www.blender.org
mtllib reed1.mtl
o 栅格.025
v -0.393434 1.960921 0.030000
v -0.327862 1.634101 0.030000
v -0.262289 1.307281 0.030000
v -0.196717 0.980461 0.030000
v -0.131145 0.653641 0.030000
v -0.065572 0.326820 0.030000
v -0.000000 0.000000 0.030000
v -0.393434 1.960921 -0.030000
v -0.327862 1.634101 -0.030000
v -0.262289 1.307281 -0.030000
v -0.196717 0.980461 -0.030000
v -0.131145 0.653641 -0.030000
v -0.065572 0.326820 -0.030000
v -0.000000 0.000000 -0.030000
v -1.367789 3.018832 0.061454
v -1.205321 2.842435 0.056491
v -1.042852 2.666038 0.051529
v -0.880383 2.489642 0.046566
v -0.717915 2.313245 0.041604
v -0.555446 2.136848 0.036641
v -0.392977 1.960451 0.031679
v -1.368704 3.019772 -0.001903
v -1.206235 2.843375 -0.006866
v -1.043766 2.666979 -0.011828
v -0.881298 2.490582 -0.016791
v -0.718829 2.314185 -0.021754
v -0.556360 2.137788 -0.026716
v -0.393892 1.961391 -0.031679
v -1.746485 2.681739 -0.031389
v -1.519557 2.564637 -0.022446
v -1.292629 2.447535 -0.013503
v -1.065701 2.330433 -0.004559
v -0.838773 2.213331 0.004384
v -0.611845 2.096230 0.013327
v -0.384917 1.979128 0.022270
v -1.763519 2.645326 -0.075930
v -1.536592 2.528224 -0.066987
v -1.309664 2.411122 -0.058044
v -1.082736 2.294020 -0.049100
v -0.855808 2.176918 -0.040157
v -0.628880 2.059816 -0.031214
v -0.401952 1.942715 -0.022271
v -1.468767 2.798207 0.018412
v -1.287534 2.661339 0.019055
v -1.106302 2.524471 0.019698
v -0.925069 2.387603 0.020341
v -0.743837 2.250735 0.020984
v -0.562604 2.113867 0.021627
v -0.381371 1.976999 0.022270
v -1.492894 2.766051 -0.026129
v -1.311661 2.629183 -0.025486
v -1.130428 2.492315 -0.024843
v -0.949196 2.355447 -0.024200
v -0.767963 2.218579 -0.023557
v -0.586730 2.081711 -0.022914
v -0.405498 1.944843 -0.022271
v -1.604636 2.963999 0.017818
v -1.400674 2.799433 0.018560
v -1.196712 2.634867 0.019302
v -0.992749 2.470302 0.020044
v -0.788787 2.305736 0.020786
v -0.584824 2.141170 0.021528
v -0.380862 1.976604 0.022270
v -1.629782 2.932633 -0.026723
v -1.425819 2.768068 -0.025981
v -1.221857 2.603502 -0.025239
v -1.017895 2.438936 -0.024497
v -0.813932 2.274370 -0.023755
v -0.609970 2.109804 -0.023013
v -0.406007 1.945238 -0.022271
v -1.170631 3.073087 0.129531
v -1.040889 2.887427 0.112929
v -0.911147 2.701766 0.096327
v -0.781405 2.516105 0.079725
v -0.651663 2.330445 0.063124
v -0.521921 2.144784 0.046522
v -0.392178 1.959124 0.029920
v -1.173144 3.076682 0.069692
v -1.043401 2.891022 0.053090
v -0.913659 2.705361 0.036488
v -0.783917 2.519701 0.019886
v -0.654175 2.334040 0.003284
v -0.524433 2.148379 -0.013318
v -0.394691 1.962719 -0.029920
v -0.896061 3.331696 0.030000
v -0.812290 3.103234 0.030000
v -0.728519 2.874771 0.030000
v -0.644747 2.646309 0.030000
v -0.560976 2.417846 0.030000
v -0.477205 2.189384 0.030000
v -0.393434 1.960922 0.030000
v -0.896061 3.331696 -0.030000
v -0.812290 3.103234 -0.030000
v -0.728519 2.874771 -0.030000
v -0.644747 2.646309 -0.030000
v -0.560976 2.417846 -0.030000
v -0.477205 2.189384 -0.030000
v -0.393434 1.960922 -0.030000
v -1.376449 2.956502 0.058969
v -1.212541 2.790498 0.054140
v -1.048632 2.624494 0.049310
v -0.884724 2.458491 0.044481
v -0.720815 2.292487 0.039652
v -0.556907 2.126483 0.034823
v -0.392998 1.960479 0.029994
v -1.377322 2.957386 -0.001018
v -1.213413 2.791382 -0.005848
v -1.049505 2.625378 -0.010677
v -0.885596 2.459374 -0.015506
v -0.721688 2.293370 -0.020335
v -0.557779 2.127367 -0.025164
v -0.393871 1.961363 -0.029994
v -1.378023 2.134327 0.037638
v -1.213354 2.108727 0.035076
v -1.048685 2.083127 0.032515
v -0.884016 2.057527 0.029954
v -0.719347 2.031927 0.027393
v -0.554678 2.006327 0.024832
v -0.390009 1.980727 0.022271
v -1.384874 2.094714 -0.006903
v -1.220205 2.069114 -0.009465
v -1.055536 2.043514 -0.012026
v -0.890867 2.017914 -0.014587
v -0.726198 1.992315 -0.017148
v -0.561529 1.966714 -0.019709
v -0.396860 1.941115 -0.022270
v -1.402791 2.861599 -0.166449
v -1.232722 2.714389 -0.135078
v -1.062653 2.567179 -0.103706
v -0.892584 2.419968 -0.072335
v -0.722514 2.272758 -0.040964
v -0.552445 2.125549 -0.009592
v -0.382376 1.978338 0.021779
v -1.424909 2.826764 -0.210008
v -1.254839 2.679554 -0.178637
v -1.084770 2.532344 -0.147265
v -0.914701 2.385134 -0.115894
v -0.744632 2.237924 -0.084522
v -0.574562 2.090714 -0.053151
v -0.404493 1.943504 -0.021780
v -1.639389 2.883563 -0.219778
v -1.429543 2.733525 -0.180556
v -1.219698 2.583486 -0.141334
v -1.009853 2.433448 -0.102112
v -0.800008 2.283409 -0.062891
v -0.590163 2.133371 -0.023669
v -0.380318 1.983333 0.015553
v -1.665623 2.838740 -0.250884
v -1.455778 2.688701 -0.211662
v -1.245933 2.538663 -0.172440
v -1.036088 2.388625 -0.133218
v -0.826242 2.238586 -0.093997
v -0.616397 2.088548 -0.054775
v -0.406552 1.938510 -0.015553
v -1.652647 2.609578 -0.230357
v -1.440957 2.505840 -0.190267
v -1.229267 2.402102 -0.150178
v -1.017578 2.298364 -0.110089
v -0.805888 2.194626 -0.070000
v -0.594198 2.090889 -0.029910
v -0.382509 1.987151 0.010179
v -1.674499 2.557119 -0.250715
v -1.462809 2.453381 -0.210625
v -1.251119 2.349643 -0.170536
v -1.039430 2.245905 -0.130447
v -0.827740 2.142167 -0.090358
v -0.616050 2.038429 -0.050268
v -0.404361 1.934691 -0.010179
v -1.691331 2.331601 -0.189177
v -1.474061 2.274429 -0.155957
v -1.256791 2.217257 -0.122736
v -1.039521 2.160084 -0.089515
v -0.822251 2.102911 -0.056295
v -0.604981 2.045739 -0.023074
v -0.387712 1.988567 0.010147
v -1.702777 2.276310 -0.209471
v -1.485507 2.219137 -0.176250
v -1.268237 2.161965 -0.143030
v -1.050968 2.104793 -0.109809
v -0.833698 2.047620 -0.076588
v -0.616428 1.990448 -0.043368
v -0.399158 1.933275 -0.010147
v -1.287453 3.037631 -0.146716
v -1.136141 2.860732 -0.118630
v -0.984828 2.683833 -0.090544
v -0.833516 2.506933 -0.062457
v -0.682203 2.330034 -0.034371
v -0.530890 2.153135 -0.006285
v -0.379578 1.976235 0.021802
v -1.315167 3.007003 -0.190320
v -1.163854 2.830104 -0.162234
v -1.012542 2.653204 -0.134147
v -0.861229 2.476305 -0.106061
v -0.709917 2.299406 -0.077975
v -0.558604 2.122506 -0.049888
v -0.407291 1.945607 -0.021802
v -1.249207 3.012862 -0.137113
v -1.104170 2.840103 -0.110708
v -0.959133 2.667345 -0.084303
v -0.814097 2.494586 -0.057898
v -0.669060 2.321827 -0.031493
v -0.524023 2.149068 -0.005088
v -0.378986 1.976310 0.021317
v -1.278105 2.982085 -0.179748
v -1.133068 2.809326 -0.153343
v -0.988031 2.636567 -0.126938
v -0.842994 2.463809 -0.100533
v -0.697957 2.291050 -0.074127
v -0.552920 2.118291 -0.047722
v -0.407883 1.945533 -0.021317
v -1.083668 3.213068 -0.146128
v -0.965802 3.006472 -0.118209
v -0.847935 2.799876 -0.090291
v -0.730068 2.593280 -0.062372
v -0.612201 2.386684 -0.034454
v -0.494334 2.180087 -0.006535
v -0.376467 1.973491 0.021383
v -1.117603 3.187929 -0.188895
v -0.999737 2.981333 -0.160976
v -0.881869 2.774736 -0.133058
v -0.764003 2.568140 -0.105139
v -0.646136 2.361544 -0.077221
v -0.528269 2.154948 -0.049302
v -0.410402 1.948352 -0.021384
v -0.959261 3.252800 -0.143857
v -0.861952 3.039317 -0.116319
v -0.764642 2.825832 -0.088780
v -0.667333 2.612348 -0.061242
v -0.570024 2.398864 -0.033703
v -0.472715 2.185380 -0.006165
v -0.375406 1.971896 0.021373
v -0.995318 3.230851 -0.186604
v -0.898009 3.017367 -0.159065
v -0.800700 2.803883 -0.131527
v -0.703391 2.590399 -0.103989
v -0.606081 2.376915 -0.076450
v -0.508772 2.163431 -0.048912
v -0.411463 1.949947 -0.021374
v -1.553790 2.911135 0.234359
v -1.362539 2.749514 0.198536
v -1.171288 2.587894 0.162713
v -0.980037 2.426273 0.126889
v -0.788787 2.264652 0.091066
v -0.597536 2.103031 0.055243
v -0.406285 1.941411 0.019419
v -1.528089 2.950156 0.195521
v -1.336838 2.788535 0.159698
v -1.145587 2.626915 0.123874
v -0.954337 2.465294 0.088051
v -0.763086 2.303673 0.052228
v -0.571835 2.142053 0.016404
v -0.380584 1.980432 -0.019419
v -1.696366 2.803511 0.229188
v -1.480416 2.660295 0.195041
v -1.264466 2.517081 0.160895
v -1.048516 2.373866 0.126749
v -0.832566 2.230650 0.092603
v -0.616616 2.087435 0.058457
v -0.400667 1.944220 0.024310
v -1.681902 2.836912 0.180567
v -1.465953 2.693697 0.146421
v -1.250003 2.550482 0.112275
v -1.034053 2.407267 0.078128
v -0.818103 2.264052 0.043982
v -0.602153 2.120837 0.009836
v -0.386203 1.977622 -0.024310
v -1.616049 2.506254 0.256031
v -1.412593 2.412902 0.217699
v -1.209136 2.319549 0.179367
v -1.005680 2.226196 0.141034
v -0.802224 2.132843 0.102702
v -0.598768 2.039491 0.064370
v -0.395312 1.946138 0.026037
v -1.612294 2.535820 0.203957
v -1.408838 2.442467 0.165625
v -1.205382 2.349115 0.127292
v -1.001926 2.255762 0.088960
v -0.798470 2.162410 0.050628
v -0.595013 2.069057 0.012295
v -0.391557 1.975704 -0.026037
v -1.709293 2.187797 0.273444
v -1.489710 2.147218 0.232025
v -1.270128 2.106638 0.190607
v -1.050546 2.066058 0.149189
v -0.830964 2.025478 0.107770
v -0.611382 1.984899 0.066352
v -0.391800 1.944319 0.024934
v -1.712563 2.221001 0.223576
v -1.492980 2.180422 0.182158
v -1.273398 2.139842 0.140739
v -1.053816 2.099262 0.099321
v -0.834234 2.058682 0.057903
v -0.614652 2.018103 0.016484
v -0.395070 1.977523 -0.024934
v -1.366371 3.034317 0.199026
v -1.206673 2.852692 0.169311
v -1.046974 2.671066 0.139596
v -0.887276 2.489440 0.109881
v -0.727577 2.307815 0.080166
v -0.567879 2.126189 0.050451
v -0.408180 1.944563 0.020736
v -1.336880 3.067034 0.157555
v -1.177181 2.885408 0.127840
v -1.017483 2.703782 0.098125
v -0.857784 2.522156 0.068410
v -0.698086 2.340531 0.038695
v -0.538387 2.158905 0.008980
v -0.378689 1.977279 -0.020735
v -1.311803 2.985884 0.195718
v -1.161118 2.812402 0.166624
v -1.010432 2.638920 0.137529
v -0.859746 2.465438 0.108435
v -0.709061 2.291956 0.079341
v -0.558375 2.118474 0.050247
v -0.407689 1.944992 0.021153
v -1.283294 3.017742 0.153411
v -1.132609 2.844260 0.124317
v -0.981923 2.670778 0.095223
v -0.831237 2.497296 0.066129
v -0.680551 2.323814 0.037035
v -0.529866 2.150332 0.007941
v -0.379180 1.976850 -0.021153
v -1.196864 3.164660 0.248220
v -1.065452 2.961728 0.210597
v -0.934041 2.758795 0.172975
v -0.802629 2.555863 0.135353
v -0.671217 2.352931 0.097730
v -0.539805 2.149998 0.060108
v -0.408393 1.947066 0.022485
v -1.166947 3.192371 0.203249
v -1.035535 2.989439 0.165627
v -0.904123 2.786506 0.128004
v -0.772711 2.583574 0.090382
v -0.641299 2.380642 0.052760
v -0.509888 2.177709 0.015137
v -0.378476 1.974777 -0.022485
v -1.037715 3.141529 0.220892
v -0.932891 2.942780 0.187890
v -0.828067 2.744031 0.154888
v -0.723243 2.545281 0.121886
v -0.618418 2.346532 0.088884
v -0.513594 2.147783 0.055882
v -0.408770 1.949034 0.022880
v -1.007044 3.165304 0.175132
v -0.902219 2.966555 0.142130
v -0.797395 2.767806 0.109128
v -0.692571 2.569057 0.076126
v -0.587747 2.370307 0.043124
v -0.482923 2.171558 0.010122
v -0.378099 1.972809 -0.022880
vn 0.9805 0.1967 -0.0000
vn 0.7355 0.6775 -0.0006
vn 0.3615 0.6494 -0.6691
vn 0.4489 0.5913 -0.6700
vn 0.4676 0.5766 -0.6700
vn 0.8197 0.5728 -0.0000
vn 0.9389 0.3443 -0.0000
vn 0.7116 0.7026 -0.0000
vn 0.1039 0.7352 -0.6698
vn 0.5508 0.4927 -0.6737
vn 0.4067 0.3481 -0.8446
vn 0.2920 0.2379 -0.9264
vn 0.2199 0.2957 -0.9296
vn 0.6088 0.4132 -0.6772
vn 0.6002 0.3978 -0.6939
vn 0.6002 0.3978 -0.6940
vn 0.6626 0.2844 -0.6929
vn 0.6856 0.2231 -0.6929
vn 0.4994 0.4234 0.7559
vn 0.5105 0.6303 0.5849
vn 0.4399 0.7670 0.4672
vn 0.2494 0.8135 0.5253
vn 0.5769 0.3898 0.7178
vn 0.5934 0.3981 0.6996
vn 0.6846 0.3221 0.6539
vn 0.7250 0.2777 0.6302
vn 0.7250 0.2777 0.6303
s 0
f 1//1 2//1 9//1 8//1
f 2//1 3//1 10//1 9//1
f 3//1 4//1 11//1 10//1
f 4//1 5//1 12//1 11//1
f 5//1 6//1 13//1 12//1
f 6//1 7//1 14//1 13//1
f 15//2 16//2 23//2 22//2
f 16//2 17//2 24//2 23//2
f 17//2 18//2 25//2 24//2
f 18//2 19//2 26//2 25//2
f 19//2 20//2 27//2 26//2
f 20//2 21//2 28//2 27//2
f 29//3 30//3 37//3 36//3
f 30//3 31//3 38//3 37//3
f 31//3 32//3 39//3 38//3
f 32//3 33//3 40//3 39//3
f 33//3 34//3 41//3 40//3
f 34//3 35//3 42//3 41//3
f 43//4 44//4 51//4 50//4
f 44//4 45//4 52//4 51//4
f 45//4 46//4 53//4 52//4
f 46//4 47//4 54//4 53//4
f 47//4 48//4 55//4 54//4
f 48//4 49//4 56//4 55//4
f 57//5 58//5 65//5 64//5
f 58//5 59//5 66//5 65//5
f 59//5 60//5 67//5 66//5
f 60//5 61//5 68//5 67//5
f 61//5 62//5 69//5 68//5
f 62//5 63//5 70//5 69//5
f 71//6 72//6 79//6 78//6
f 72//6 73//6 80//6 79//6
f 73//6 74//6 81//6 80//6
f 74//6 75//6 82//6 81//6
f 75//6 76//6 83//6 82//6
f 76//6 77//6 84//6 83//6
f 85//7 86//7 93//7 92//7
f 86//7 87//7 94//7 93//7
f 87//7 88//7 95//7 94//7
f 88//7 89//7 96//7 95//7
f 89//7 90//7 97//7 96//7
f 90//7 91//7 98//7 97//7
f 99//8 100//8 107//8 106//8
f 100//8 101//8 108//8 107//8
f 101//8 102//8 109//8 108//8
f 102//8 103//8 110//8 109//8
f 103//8 104//8 111//8 110//8
f 104//8 105//8 112//8 111//8
f 113//9 114//9 121//9 120//9
f 114//9 115//9 122//9 121//9
f 115//9 116//9 123//9 122//9
f 116//9 117//9 124//9 123//9
f 117//9 118//9 125//9 124//9
f 118//9 119//9 126//9 125//9
f 127//10 128//10 135//10 134//10
f 128//10 129//10 136//10 135//10
f 129//10 130//10 137//10 136//10
f 130//10 131//10 138//10 137//10
f 131//10 132//10 139//10 138//10
f 132//10 133//10 140//10 139//10
f 141//11 142//11 149//11 148//11
f 142//11 143//11 150//11 149//11
f 143//11 144//11 151//11 150//11
f 144//11 145//11 152//11 151//11
f 145//11 146//11 153//11 152//11
f 146//11 147//11 154//11 153//11
f 155//12 156//12 163//12 162//12
f 156//12 157//12 164//12 163//12
f 157//12 158//12 165//12 164//12
f 158//12 159//12 166//12 165//12
f 159//12 160//12 167//12 166//12
f 160//12 161//12 168//12 167//12
f 169//13 170//13 177//13 176//13
f 170//13 171//13 178//13 177//13
f 171//13 172//13 179//13 178//13
f 172//13 173//13 180//13 179//13
f 173//13 174//13 181//13 180//13
f 174//13 175//13 182//13 181//13
f 183//14 184//14 191//14 190//14
f 184//14 185//14 192//14 191//14
f 185//14 186//14 193//14 192//14
f 186//14 187//14 194//14 193//14
f 187//14 188//14 195//14 194//14
f 188//14 189//14 196//14 195//14
f 197//15 198//15 205//15 204//15
f 198//15 199//15 206//15 205//15
f 199//15 200//15 207//15 206//15
f 200//16 201//16 208//16 207//16
f 201//15 202//15 209//15 208//15
f 202//15 203//15 210//15 209//15
f 211//17 212//17 219//17 218//17
f 212//17 213//17 220//17 219//17
f 213//17 214//17 221//17 220//17
f 214//17 215//17 222//17 221//17
f 215//17 216//17 223//17 222//17
f 216//17 217//17 224//17 223//17
f 225//18 226//18 233//18 232//18
f 226//18 227//18 234//18 233//18
f 227//18 228//18 235//18 234//18
f 228//18 229//18 236//18 235//18
f 229//18 230//18 237//18 236//18
f 230//18 231//18 238//18 237//18
f 239//19 240//19 247//19 246//19
f 240//19 241//19 248//19 247//19
f 241//19 242//19 249//19 248//19
f 242//19 243//19 250//19 249//19
f 243//19 244//19 251//19 250//19
f 244//19 245//19 252//19 251//19
f 253//20 254//20 261//20 260//20
f 254//20 255//20 262//20 261//20
f 255//20 256//20 263//20 262//20
f 256//20 257//20 264//20 263//20
f 257//20 258//20 265//20 264//20
f 258//20 259//20 266//20 265//20
f 267//21 268//21 275//21 274//21
f 268//21 269//21 276//21 275//21
f 269//21 270//21 277//21 276//21
f 270//21 271//21 278//21 277//21
f 271//21 272//21 279//21 278//21
f 272//21 273//21 280//21 279//21
f 281//22 282//22 289//22 288//22
f 282//22 283//22 290//22 289//22
f 283//22 284//22 291//22 290//22
f 284//22 285//22 292//22 291//22
f 285//22 286//22 293//22 292//22
f 286//22 287//22 294//22 293//22
f 295//23 296//23 303//23 302//23
f 296//23 297//23 304//23 303//23
f 297//23 298//23 305//23 304//23
f 298//23 299//23 306//23 305//23
f 299//23 300//23 307//23 306//23
f 300//23 301//23 308//23 307//23
f 309//24 310//24 317//24 316//24
f 310//24 311//24 318//24 317//24
f 311//24 312//24 319//24 318//24
f 312//24 313//24 320//24 319//24
f 313//24 314//24 321//24 320//24
f 314//24 315//24 322//24 321//24
f 323//25 324//25 331//25 330//25
f 324//25 325//25 332//25 331//25
f 325//25 326//25 333//25 332//25
f 326//25 327//25 334//25 333//25
f 327//25 328//25 335//25 334//25
f 328//25 329//25 336//25 335//25
f 337//26 338//26 345//26 344//26
f 338//26 339//26 346//26 345//26
f 339//27 340//27 347//27 346//27
f 340//26 341//26 348//26 347//26
f 341//26 342//26 349//26 348//26
f 342//26 343//26 350//26 349//26
